<svg xmlns:xlink="http://www.w3.org/1999/xlink" width="132" xmlns="http://www.w3.org/2000/svg" height="72" id="screenshot-120dc1f5-5764-803f-8002-54202e53029e" viewBox="0 0 132 72" style="-webkit-print-color-adjust: exact;" fill="none" version="1.1"><g id="shape-120dc1f5-5764-803f-8002-54202e53029e" rx="0" ry="0"><g id="shape-120dc1f5-5764-803f-8002-54202e53029f"><g class="fills" id="fills-120dc1f5-5764-803f-8002-54202e53029f"><rect rx="0" ry="0" x="120" y="60" transform="matrix(1.000000, 0.000000, 0.000000, 1.000000, 0.000000, 0.000000)" width="12" height="12" style="fill: rgb(34, 34, 34); fill-opacity: 1;"/></g></g><g id="shape-120dc1f5-5764-803f-8002-54202e5302a0"><g class="fills" id="fills-120dc1f5-5764-803f-8002-54202e5302a0"><rect rx="0" ry="0" x="96" y="48" transform="matrix(1.000000, 0.000000, 0.000000, 1.000000, 0.000000, 0.000000)" width="12" height="24" style="fill: rgb(34, 34, 34); fill-opacity: 1;"/></g></g><g id="shape-120dc1f5-5764-803f-8002-54202e537eb6"><g class="fills" id="fills-120dc1f5-5764-803f-8002-54202e537eb6"><rect rx="0" ry="0" x="72" y="36" transform="matrix(1.000000, 0.000000, 0.000000, 1.000000, 0.000000, 0.000000)" width="12" height="36" style="fill: rgb(34, 34, 34); fill-opacity: 1;"/></g></g><g id="shape-120dc1f5-5764-803f-8002-54202e537eb7"><g class="fills" id="fills-120dc1f5-5764-803f-8002-54202e537eb7"><rect rx="0" ry="0" x="48" y="24" transform="matrix(1.000000, 0.000000, 0.000000, 1.000000, 0.000000, 0.000000)" width="12" height="48" style="fill: rgb(34, 34, 34); fill-opacity: 1;"/></g></g><g id="shape-120dc1f5-5764-803f-8002-54202e537eb8"><g class="fills" id="fills-120dc1f5-5764-803f-8002-54202e537eb8"><rect rx="0" ry="0" x="24" y="12" transform="matrix(1.000000, 0.000000, 0.000000, 1.000000, 0.000000, 0.000000)" width="12" height="60.000000000000114" style="fill: rgb(34, 34, 34); fill-opacity: 1;"/></g></g><g id="shape-120dc1f5-5764-803f-8002-54202e537eb9"><g class="fills" id="fills-120dc1f5-5764-803f-8002-54202e537eb9"><rect rx="0" ry="0" x="0" y="0" transform="matrix(1.000000, 0.000000, 0.000000, 1.000000, 0.000000, 0.000000)" width="12" height="72" style="fill: rgb(34, 34, 34); fill-opacity: 1;"/></g></g></g></svg>