<svg xmlns:xlink="http://www.w3.org/1999/xlink" width="20" xmlns="http://www.w3.org/2000/svg" height="19.5" id="screenshot-89822874-17e9-8064-8002-5ca639eb6014" viewBox="11202 1793 20 19.5" style="-webkit-print-color-adjust: exact;" fill="none" version="1.1"><g id="shape-89822874-17e9-8064-8002-5ca639eb6014"><g class="fills" id="fills-89822874-17e9-8064-8002-5ca639eb6014"><path rx="0" ry="0" d="M11206.455,1809.000L11202.000,1812.500L11202.000,1794.000C11202.000,1793.448,11202.448,1793.000,11203.000,1793.000L11221.000,1793.000C11221.552,1793.000,11222.000,1793.448,11222.000,1794.000L11222.000,1808.000C11222.000,1808.552,11221.552,1809.000,11221.000,1809.000L11206.455,1809.000ZZM11205.763,1807.000L11220.000,1807.000L11220.000,1795.000L11204.000,1795.000L11204.000,1808.385L11205.763,1807.000ZZM11211.000,1800.000L11213.000,1800.000L11213.000,1802.000L11211.000,1802.000L11211.000,1800.000ZZM11207.000,1800.000L11209.000,1800.000L11209.000,1802.000L11207.000,1802.000L11207.000,1800.000ZZM11215.000,1800.000L11217.000,1800.000L11217.000,1802.000L11215.000,1802.000L11215.000,1800.000ZZ" style="fill: rgb(255, 255, 255);"/></g></g></svg>