<svg xmlns:xlink="http://www.w3.org/1999/xlink" width="232.8" xmlns="http://www.w3.org/2000/svg" height="101.906" id="screenshot-d15966dd-cbe3-805f-8002-5cad8a9855b7" viewBox="0 0 232.8 101.906" style="-webkit-print-color-adjust: exact;" fill="none" version="1.1"><g id="shape-d15966dd-cbe3-805f-8002-5cad8a9855b7" rx="0" ry="0"><g id="shape-d15966dd-cbe3-805f-8002-5cad02f141fd" width="24" height="24" rx="0" ry="0" style="fill: rgb(0, 0, 0);"><g id="shape-d15966dd-cbe3-805f-8002-5cad02f5bbf1"><g class="fills" id="fills-d15966dd-cbe3-805f-8002-5cad02f5bbf1"><path rx="0" ry="0" d="M184.938,40.001L173.905,42.580L189.542,9.047C190.009,8.046,191.199,7.613,192.200,8.079L224.827,23.294C225.828,23.760,226.261,24.950,225.794,25.951L213.961,51.328C213.494,52.329,212.304,52.762,211.303,52.295L184.938,40.001ZZM181.008,36.812L185.374,35.791L211.181,47.825L221.324,26.074L192.322,12.550L181.008,36.812ZZM198.248,32.967L201.873,34.658L200.183,38.283L196.558,36.593L198.248,32.967ZZM203.320,22.092L206.945,23.782L202.719,32.845L199.093,31.155L203.320,22.092ZZ" style="fill: rgb(0, 0, 0);"/></g></g></g><g id="shape-d15966dd-cbe3-805f-8002-5cacf7aa1e85" width="24" height="24" rx="0" ry="0" style="fill: rgb(0, 0, 0);"><g id="shape-d15966dd-cbe3-805f-8002-5cacf7ad90d2"><g class="fills" id="fills-d15966dd-cbe3-805f-8002-5cacf7ad90d2"><path rx="0" ry="0" d="M17.157,93.927L15.995,99.471L4.103,85.300C3.748,84.876,3.803,84.246,4.226,83.891L18.015,72.321C18.438,71.965,19.069,72.021,19.424,72.444L28.423,83.168C28.778,83.591,28.723,84.222,28.300,84.577L17.157,93.927ZZM14.882,95.034L15.342,92.839L26.248,83.688L18.535,74.495L6.278,84.780L14.882,95.034ZZM17.347,83.325L20.833,83.630L20.659,85.622L17.172,85.317L16.867,88.804L14.875,88.630L15.180,85.143L11.693,84.838L11.867,82.846L15.354,83.151L15.659,79.664L17.652,79.838L17.347,83.325ZZ" style="fill: rgb(0, 0, 0);"/></g></g></g><g id="shape-d15966dd-cbe3-805f-8002-5cace58a70c1" width="24" height="24" rx="0" ry="0" style="fill: rgb(0, 0, 0);"><g id="shape-d15966dd-cbe3-805f-8002-5cace58ea7dd"><g class="fills" id="fills-d15966dd-cbe3-805f-8002-5cace58ea7dd"><path rx="0" ry="0" d="M64.605,5.806L147.101,88.302L141.208,94.195L126.175,79.165L79.802,79.167L61.240,93.751L61.240,16.667C61.240,15.962,61.415,15.297,61.725,14.715L58.712,11.699L64.605,5.806ZZM69.571,22.556L69.573,76.606L76.921,70.834L117.842,70.832L69.571,22.556ZZM140.407,12.501C142.708,12.501,144.573,14.366,144.573,16.667L144.573,74.105L136.240,65.772L136.240,20.834L91.294,20.830L82.965,12.501L140.407,12.501ZZ" style="fill: rgb(0, 0, 0);"/></g></g></g></g></svg>