<svg xmlns:xlink="http://www.w3.org/1999/xlink" width="201.381" xmlns="http://www.w3.org/2000/svg" height="99.381" id="screenshot-4c749369-2848-802c-8002-5918212bf5f4" viewBox="0 0 201.381 99.381" style="-webkit-print-color-adjust: exact;" fill="none" version="1.1"><g id="shape-4c749369-2848-802c-8002-5918212bf5f4" rx="0" ry="0"><g id="shape-4c749369-2848-802c-8002-5918212bf5f6" width="24" height="24" rx="0" ry="0" style="fill: rgb(0, 0, 0);"><g id="shape-4c749369-2848-802c-8002-5918212c2505"><g class="fills" id="fills-4c749369-2848-802c-8002-5918212c2505"><path rx="0" ry="0" d="M197.381,37.000C197.381,46.936,189.317,55.000,179.381,55.000C169.445,55.000,161.381,46.936,161.381,37.000C161.381,27.064,169.445,19.000,179.381,19.000C189.317,19.000,197.381,27.064,197.381,37.000ZZM165.381,37.000C165.381,44.735,171.646,51.000,179.381,51.000C187.116,51.000,193.381,44.735,193.381,37.000C193.381,29.265,187.116,23.000,179.381,23.000C171.646,23.000,165.381,29.265,165.381,37.000ZZM165.238,53.971L159.582,59.627L156.753,56.799L162.410,51.142L165.238,53.971ZZ" style="fill: rgb(0, 0, 0);"/></g></g></g><g id="shape-4c749369-2848-802c-8002-5918212c2502" width="24" height="24" rx="0" ry="0" style="fill: rgb(0, 0, 0);"><g id="shape-4c749369-2848-802c-8002-5918212c2507"><g class="fills" id="fills-4c749369-2848-802c-8002-5918212c2507"><path rx="0" ry="0" d="M116.758,68.544L134.425,86.210L128.591,92.044L110.925,74.378C104.573,79.460,96.517,82.500,87.756,82.500C67.263,82.500,50.631,65.868,50.631,45.375C50.631,24.882,67.263,8.250,87.756,8.250C108.249,8.250,124.881,24.882,124.881,45.375C124.881,54.137,121.840,62.192,116.758,68.544ZZM108.482,65.484C113.526,60.285,116.631,53.194,116.631,45.375C116.631,29.422,103.709,16.500,87.756,16.500C71.802,16.500,58.881,29.422,58.881,45.375C58.881,61.328,71.802,74.250,87.756,74.250C95.575,74.250,102.666,71.146,107.864,66.102L108.482,65.484ZZM92.614,29.602C89.750,30.896,87.756,33.777,87.756,37.125C87.756,41.681,91.449,45.375,96.006,45.375C99.353,45.375,102.235,43.381,103.529,40.516C104.001,42.052,104.256,43.684,104.256,45.375C104.256,54.488,96.868,61.875,87.756,61.875C78.643,61.875,71.256,54.488,71.256,45.375C71.256,36.262,78.643,28.875,87.756,28.875C89.447,28.875,91.078,29.129,92.614,29.602ZZ" style="fill: rgb(34, 34, 34);"/></g></g></g><g id="shape-4c749369-2848-802c-8002-5918212c2503" width="24" height="24" rx="0" ry="0" style="fill: rgb(0, 0, 0);"><g id="shape-4c749369-2848-802c-8002-5918212c2509"><g class="fills" id="fills-4c749369-2848-802c-8002-5918212c2509"><path rx="0" ry="0" d="M19.740,93.055C15.072,94.754,9.904,92.344,8.205,87.676C6.506,83.007,8.916,77.840,13.584,76.140C18.252,74.441,23.420,76.851,25.119,81.519C26.819,86.188,24.409,91.356,19.740,93.055ZZM6.270,80.855L2.645,79.165L3.490,77.352L7.115,79.043L6.270,80.855ZZ" style="fill: rgb(0, 0, 0);"/></g></g></g></g></svg>